<svg width="9" height="15" viewBox="0 0 9 15" fill="none" xmlns="http://www.w3.org/2000/svg">
<path d="M8.1922 8.28299L1.9422 14.533C1.88413 14.5911 1.81519 14.6371 1.73932 14.6685C1.66345 14.7 1.58213 14.7162 1.50001 14.7162C1.41789 14.7162 1.33657 14.7 1.2607 14.6685C1.18483 14.6371 1.11589 14.5911 1.05782 14.533C0.999755 14.4749 0.953692 14.406 0.922266 14.3301C0.890839 14.2542 0.874664 14.1729 0.874664 14.0908C0.874664 14.0087 0.890839 13.9274 0.922266 13.8515C0.953692 13.7756 0.999755 13.7067 1.05782 13.6486L6.86642 7.8408L1.05782 2.03299C0.940549 1.91571 0.874664 1.75665 0.874664 1.5908C0.874664 1.42495 0.940549 1.26589 1.05782 1.14861C1.1751 1.03134 1.33416 0.965454 1.50001 0.965454C1.66586 0.965454 1.82492 1.03134 1.9422 1.14861L8.1922 7.39861C8.25031 7.45666 8.29641 7.52559 8.32786 7.60146C8.35931 7.67734 8.3755 7.75867 8.3755 7.8408C8.3755 7.92294 8.35931 8.00427 8.32786 8.08014C8.29641 8.15601 8.25031 8.22494 8.1922 8.28299Z" fill="#0A58CA"/>
</svg>
