<svg width="9" height="14" viewBox="0 0 9 14" fill="none" xmlns="http://www.w3.org/2000/svg">
<path d="M8.1922 7.48442L1.9422 13.7344C1.88413 13.7925 1.81519 13.8386 1.73932 13.87C1.66345 13.9014 1.58213 13.9176 1.50001 13.9176C1.41789 13.9176 1.33657 13.9014 1.2607 13.87C1.18483 13.8386 1.11589 13.7925 1.05782 13.7344C0.999755 13.6764 0.953692 13.6074 0.922266 13.5315C0.890839 13.4557 0.874664 13.3744 0.874664 13.2922C0.874664 13.2101 0.890839 13.1288 0.922266 13.0529C0.953692 12.9771 0.999755 12.9081 1.05782 12.85L6.86642 7.04223L1.05782 1.23442C0.940549 1.11714 0.874664 0.958085 0.874664 0.792233C0.874664 0.62638 0.940549 0.467321 1.05782 0.350045C1.1751 0.23277 1.33416 0.166885 1.50001 0.166885C1.66586 0.166885 1.82492 0.23277 1.9422 0.350045L8.1922 6.60005C8.25031 6.65809 8.29641 6.72702 8.32786 6.8029C8.35931 6.87877 8.3755 6.9601 8.3755 7.04223C8.3755 7.12437 8.35931 7.2057 8.32786 7.28157C8.29641 7.35744 8.25031 7.42637 8.1922 7.48442Z" fill="#0A58CA"/>
</svg>
